<svg width="40" height="40" fill="none" xmlns="http://www.w3.org/2000/svg"><path d="M34.083 34.083h-5.927V24.8c0-2.213-.04-5.063-3.083-5.063-3.087 0-3.56 2.412-3.56 4.902v9.442h-5.926V14.995h5.69v2.608h.08a6.243 6.243 0 0 1 5.613-3.083c6.007 0 7.115 3.951 7.115 9.092l-.002 10.47ZM8.9 12.386a3.456 3.456 0 0 1-3.44-3.44 3.456 3.456 0 0 1 3.439-3.44 3.456 3.456 0 0 1 3.44 3.44 3.456 3.456 0 0 1-3.44 3.44Zm2.963 21.697H5.93V14.995h5.933v19.088ZM37.037.003H2.952A2.933 2.933 0 0 0 0 2.886v34.228A2.935 2.935 0 0 0 2.952 40h34.085A2.94 2.94 0 0 0 40 37.114V2.884A2.938 2.938 0 0 0 37.037 0v.003Z" fill="#fff"/></svg>