<?xml version="1.0" encoding="UTF-8" standalone="no"?>
<!DOCTYPE svg PUBLIC "-//W3C//DTD SVG 1.1//EN" "http://www.w3.org/Graphics/SVG/1.1/DTD/svg11.dtd">
<svg width="100%" height="100%" viewBox="0 0 500 500" version="1.1" xmlns="http://www.w3.org/2000/svg" xmlns:xlink="http://www.w3.org/1999/xlink" xml:space="preserve" xmlns:serif="http://www.serif.com/" style="fill-rule:evenodd;clip-rule:evenodd;stroke-linecap:round;stroke-miterlimit:1.5;">
    <g transform="matrix(0.139269,0,0,0.14046,41.0967,39.31)">
        <g transform="matrix(6.81825,0,0,6.81825,273.447,441.334)">
            <path d="M109.041,0.545C137.451,0.545 164.699,11.831 184.788,31.92C196.781,43.914 205.637,58.458 210.827,74.279C211.876,77.476 212.776,80.726 213.521,84.017C214.115,86.642 214.611,89.294 215.007,91.967C215.445,94.925 215.761,97.908 215.951,100.91C216.092,103.153 216.164,115.145 216.164,117.406L216.164,122.573L166.349,99.32L155.418,94.153C153.277,85.913 149.25,79.704 143.127,73.581C134.087,64.541 121.825,59.462 109.04,59.462C96.256,59.462 83.994,64.541 74.954,73.581C65.914,82.622 60.835,94.883 60.835,107.668L59.951,142.845C59.951,142.845 60.478,146.852 60.909,149.404C61.616,153.592 62.157,155.93 63.109,160.041L63.131,160.136C64.051,164.116 64.393,166.695 64.393,166.695L9.937,189.749L8.476,183.985C7.446,180.209 6.283,175.042 5.296,170.272C4.103,164.509 2.712,158.149 2.514,151.59C1.742,145.065 2.116,138.274 1.917,131.914C1.917,129.092 1.917,126.345 1.917,123.673C1.917,122.019 1.917,120.394 1.917,118.797C1.917,115.816 2.579,95.703 2.748,94.352C3.278,90.123 4.058,85.942 5.079,81.831C6.189,77.368 7.583,72.987 9.251,68.714C10.626,65.19 12.188,61.74 13.93,58.379C15.442,55.46 17.091,52.608 18.871,49.833C22.99,43.411 27.814,37.399 33.293,31.92C53.383,11.831 80.63,0.545 109.041,0.545Z" style="fill:white;fill-rule:nonzero;"/>
        </g>
        <g transform="matrix(6.81825,0,0,6.81825,273.447,441.334)">
            <path d="M357.272,107.668C357.272,79.257 345.986,52.01 325.896,31.92C305.807,11.831 278.56,0.545 250.149,0.545C222.682,0.545 208.76,1.708 189.602,20.022C195.763,25.189 205.76,38.033 208.085,41.287C209.241,42.905 216.631,56.68 217.227,58.578C219.612,63.944 221.6,68.316 221.6,68.316C230.742,60.764 237.364,59.462 250.149,59.462C262.934,59.462 275.195,64.541 284.235,73.581C293.276,82.622 298.354,94.883 298.354,107.668L298.354,147.417L297.847,150.994C297.847,150.994 296.923,155.462 296.456,158.347C296.328,159.142 296.328,159.341 296.129,159.937L349.79,184.979L350.316,183.389L351.906,177.824L352.9,173.651L354.291,168.285L356.477,155.565L357.073,150.994L357.272,147.417L357.272,107.668Z" style="fill:white;fill-rule:nonzero;"/>
        </g>
        <path d="M1464.44,2156.77C1570.54,2165.42 1635.36,2150.8 1737.63,2118.79C1840.88,2086.47 1936.68,2034.38 2019.55,1965.49C2031.67,1955.41 2043.48,1945.01 2054.97,1934.28L2067.76,1922.09C2071.88,1918.06 2085.22,1903.16 2089.26,1899.05C2096.04,1903.12 2387.38,2048.12 2394.16,2050.82C2400.93,2053.53 2422.61,2061.66 2441.59,2065.73C2461.91,2070.08 2465.98,2071.15 2474.11,2071.15C2387.38,2187.69 2400.33,2165.67 2277.25,2267.98C2154.16,2370.3 2011.87,2447.68 1858.53,2495.68C1705.38,2543.61 1602.99,2564.42 1443.09,2550.91L1443.09,2550.94C1222.79,2540.94 1010.8,2472.48 828.564,2354.68C783.747,2325.71 740.73,2293.76 699.831,2258.95C682.885,2244.53 666.303,2229.62 650.107,2214.24C623.878,2189.31 598.882,2163.34 575.163,2136.41C553.916,2112.29 548.182,2104.97 547.311,2103.84C547.125,2103.77 547.184,2103.67 547.184,2103.67C547.184,2103.67 547.222,2103.72 547.311,2103.84C548,2104.1 552.073,2103.96 575.163,2096.9C597.322,2090.12 604.097,2087.41 639.33,2072.5C675.917,2054.89 824.976,1986.91 852.078,1974.94C896.72,1952.63 911.651,1949.21 935.969,1937.06C935.621,1936.63 936.093,1937 936.093,1937L935.969,1937.06C936.452,1937.65 938.509,1939.77 945.579,1946.48C1089.84,2083.56 1264.51,2147.39 1464.46,2156.48L1464.44,2156.77Z" style="fill:white;fill-rule:nonzero;"/>
        <g transform="matrix(6.81825,0,0,6.81825,273.447,441.334)">
            <path d="M136.537,149.205L176.882,169.477L46.689,229.107C30.148,236.683 10.593,229.49 2.904,213.001C1.318,209.599 2.874,205.561 6.332,204.103L136.537,149.205Z" style="fill:white;fill-rule:nonzero;"/>
        </g>
        <g transform="matrix(6.81825,0,0,6.81825,273.447,441.334)">
            <path d="M143.095,139.363L152.964,106.336L354.121,200.137C357.368,201.651 358.773,205.51 357.259,208.757C349.553,225.281 329.745,232.209 313.42,224.089L143.095,139.363Z" style="fill:white;fill-rule:nonzero;"/>
        </g>
    </g>
    <g transform="matrix(0.98937,0,0,1.00059,2.65755,-0.148158)">
        <path d="M250,20.136L60,20.136C60,20.136 59.636,55.136 27.636,55.136L27.636,250" style="fill:none;stroke:white;stroke-width:16.75px;"/>
    </g>
    <g transform="matrix(-0.98937,0,0,1.00059,497.342,-0.148158)">
        <path d="M250,20.136L60,20.136C60,20.136 59.636,55.136 27.636,55.136L27.636,250" style="fill:none;stroke:white;stroke-width:16.75px;"/>
    </g>
    <g transform="matrix(0.98937,-6.66951e-18,6.39324e-18,-1.00059,2.65755,500.148)">
        <path d="M250,20.136L60,20.136C60,20.136 59.636,55.136 27.636,55.136L27.636,250" style="fill:none;stroke:white;stroke-width:16.75px;"/>
    </g>
    <g transform="matrix(-0.98937,6.66951e-18,6.39324e-18,-1.00059,497.342,500.148)">
        <path d="M250,20.136L60,20.136C60,20.136 59.636,55.136 27.636,55.136L27.636,250" style="fill:none;stroke:white;stroke-width:16.75px;"/>
    </g>
</svg>
