<?xml version="1.0" encoding="UTF-8" standalone="no"?>
<!DOCTYPE svg PUBLIC "-//W3C//DTD SVG 1.1//EN" "http://www.w3.org/Graphics/SVG/1.1/DTD/svg11.dtd">
<svg width="100%" height="100%" viewBox="0 0 1000 1000" version="1.1" xmlns="http://www.w3.org/2000/svg" xmlns:xlink="http://www.w3.org/1999/xlink" xml:space="preserve" xmlns:serif="http://www.serif.com/" style="fill-rule:evenodd;clip-rule:evenodd;stroke-linejoin:round;stroke-miterlimit:2;">
    <g id="Cut_Parts" transform="matrix(1.04075,0,0,1.04075,-15.6113,71.0813)">
        <g transform="matrix(0.914748,0,0,0.914748,39.8477,-43.6038)">
            <path d="M816.869,510.903C822.535,486.769 825.531,461.619 825.531,435.775L825.531,370.183C825.531,296.272 765.525,236.266 691.614,236.266C663.321,236.266 637.065,245.059 615.44,260.055C596.773,207.181 565.041,160.474 524.111,123.804C571.832,91.295 629.503,72.286 691.614,72.286C856.137,72.286 989.51,205.659 989.51,370.183L989.51,435.775C989.51,486.407 981.861,535.252 967.653,581.223L939.854,568.252L816.869,510.903Z" style="fill:white;"/>
        </g>
        <g transform="matrix(0.914748,0,0,0.914748,39.8477,-43.6038)">
            <path d="M272.855,674.56C331.586,729.848 410.652,763.734 497.571,763.734C591.705,763.734 676.629,723.988 736.468,660.374L868.243,721.821C875.971,725.425 884.008,727.981 892.213,729.529C802.519,849.823 659.141,927.714 497.571,927.714C343.632,927.714 206.206,857.006 116.024,746.324C121.056,744.881 125.998,743.04 130.82,740.792L272.855,674.56ZM33.445,599.244C15.429,548.086 5.632,493.074 5.632,435.775L5.632,370.183C5.632,205.659 139.005,72.286 303.529,72.286C468.052,72.286 601.425,205.659 601.425,370.183L601.425,410.44L431.702,331.297C415.03,276.329 363.921,236.266 303.529,236.266C229.618,236.266 169.612,296.272 169.612,370.183L169.612,435.775C169.612,468.301 174.358,499.729 183.195,529.407L59.209,587.222L33.445,599.244Z" style="fill:white;"/>
        </g>
        <g transform="matrix(0.914748,0,0,0.914748,39.8477,-43.6038)">
            <path d="M358.202,483.985L481.072,541.28L116.96,711.069C83.411,726.713 42.436,713.209 14.917,680.747C9.595,674.518 7.49,666.159 9.228,658.152C10.966,650.145 16.347,643.41 23.772,639.947C45.698,629.708 73.069,616.945 73.069,616.945L358.202,483.985Z" style="fill:white;"/>
        </g>
        <g transform="matrix(0.733649,0.342106,-0.422618,0.906308,466.622,-169.797)">
            <path d="M212.855,527.5L822,527.5C863.83,527.5 899.346,500.464 912.027,462.914C914.503,455.691 912.666,447.948 907.062,441.982C901.458,436.015 892.732,432.512 883.473,432.512C856.127,432.5 822,432.5 822,432.5L212.855,432.5L212.855,527.5Z" style="fill:white;"/>
        </g>
    </g>
</svg>
