<svg xmlns="http://www.w3.org/2000/svg" viewBox="0 0 512.002 512.002" style="enable-background:new 0 0 512.002 512.002" xml:space="preserve"><path style="fill:#73a1fb" d="M500.398 94.784a194.219 194.219 0 0 1-24.763 9.023 109.468 109.468 0 0 0 22.287-39.193 8.258 8.258 0 0 0-12.078-9.619c-17.945 10.643-37.305 18.292-57.605 22.764-20.449-19.981-48.222-31.353-76.934-31.353-60.606 0-109.913 49.306-109.913 109.91 0 4.773.302 9.52.9 14.201-75.206-6.603-145.124-43.568-193.136-102.463a8.259 8.259 0 0 0-13.537 1.061c-9.738 16.709-14.886 35.82-14.886 55.265 0 26.484 9.455 51.611 26.158 71.246a93.118 93.118 0 0 1-14.711-6.568 8.26 8.26 0 0 0-12.267 7.03c-.012.487-.012.974-.012 1.468 0 39.531 21.276 75.122 53.805 94.52a94.762 94.762 0 0 1-8.362-1.214 8.254 8.254 0 0 0-7.731 2.638 8.25 8.25 0 0 0-1.681 7.994c12.04 37.591 43.039 65.24 80.514 73.67-31.082 19.468-66.626 29.665-103.939 29.665-7.786 0-15.616-.457-23.279-1.364A8.258 8.258 0 0 0 3.8 418.617c47.935 30.735 103.361 46.98 160.284 46.98 111.903 0 181.907-52.769 220.926-97.037 48.657-55.199 76.562-128.261 76.562-200.451 0-3.016-.046-6.061-.139-9.097 19.197-14.463 35.724-31.967 49.173-52.085a8.256 8.256 0 0 0-.545-9.906 8.245 8.245 0 0 0-9.663-2.237z"/></svg>